%
M48
M72
T01C0.02400
T02C0.03200
T03C0.03937
T04C0.04000
T05C0.04331
T06C0.04400
%
T01
X66700Y93700
X25300Y129700
X86500Y162100
X93700Y145000
X109000Y163000
X137800Y159400
X173800Y188200
X191800Y145900
X262900Y145000
X276400Y100900
X177400Y235900
X167500Y248500
X68500Y230500
T02
X16000Y36000
X16000Y46000
X16000Y56000
X16000Y66000
X16000Y76000
X16000Y86000
X41000Y146000
X41000Y161000
X41000Y181000
X36000Y211000
X36000Y226000
X71000Y181000
X71000Y161000
X71000Y146000
X91000Y151000
X91000Y166000
X91000Y181000
X91000Y196000
X96000Y211000
X106000Y221000
X116000Y221000
X136000Y221000
X146000Y221000
X141000Y206000
X151000Y196000
X166000Y196000
X171000Y206000
X171000Y221000
X161000Y221000
X161000Y241000
X171000Y241000
X171000Y256000
X192000Y246000
X200000Y246000
X221000Y261000
X251000Y261000
X251000Y276000
X251000Y291000
X276000Y291000
X276000Y281000
X271000Y221000
X271000Y206000
X266000Y181000
X266000Y166000
X266000Y151000
X236000Y151000
X236000Y166000
X236000Y181000
X221000Y181000
X221000Y166000
X221000Y151000
X221000Y136000
X221000Y121000
X196000Y106000
X186000Y106000
X186000Y86000
X196000Y86000
X196000Y71000
X186000Y71000
X185000Y51000
X177000Y51000
X181000Y41000
X181000Y26000
X181000Y11000
X207000Y51000
X215000Y51000
X246000Y16000
X256000Y16000
X266000Y16000
X286000Y36000
X286000Y46000
X286000Y56000
X286000Y66000
X286000Y76000
X286000Y86000
X226000Y196000
X211000Y206000
X211000Y221000
X196000Y221000
X186000Y221000
X161000Y181000
X151000Y181000
X151000Y166000
X161000Y166000
X161000Y151000
X151000Y151000
X151000Y136000
X161000Y136000
X161000Y121000
X151000Y121000
X136000Y106000
X136000Y96000
X136000Y86000
X136000Y76000
X132000Y56000
X140000Y56000
X121000Y41000
X121000Y26000
X121000Y11000
X105000Y51000
X97000Y51000
X106000Y71000
X116000Y71000
X116000Y91000
X106000Y91000
X106000Y106000
X116000Y106000
X91000Y121000
X91000Y136000
X166000Y106000
X166000Y96000
X166000Y86000
X166000Y76000
X61000Y16000
X51000Y16000
X41000Y16000
X96000Y226000
X107000Y246000
X115000Y246000
X136000Y241000
X146000Y241000
X141000Y256000
X141000Y276000
X141000Y291000
X191000Y291000
X191000Y276000
X81000Y276000
X81000Y291000
T03
X21000Y241000
X21000Y231000
X21000Y221000
X156157Y278480
X175843Y266669
X175843Y291472
X281000Y241000
X281000Y231000
X281000Y221000
T04
X286000Y176000
X286000Y166000
X286000Y156000
X286000Y126000
X286000Y116000
X286000Y106000
X16000Y106000
X16000Y116000
X16000Y126000
X16000Y156000
X16000Y166000
X16000Y176000
T05
X54110Y285606
X67890Y285606
X77220Y20606
X91000Y20606
X104780Y20606
X202220Y20606
X216000Y20606
X229780Y20606
T06
X231000Y51000
X231000Y71000
X231000Y91000
X231000Y111000
X231000Y131000
X271000Y131000
X271000Y111000
X271000Y91000
X271000Y71000
X271000Y51000
X256000Y246000
X216000Y246000
X86000Y241000
X86000Y256000
X46000Y256000
X46000Y241000
X36000Y126000
X36000Y106000
X36000Y91000
X36000Y71000
X36000Y51000
X76000Y51000
X76000Y71000
X76000Y91000
X76000Y106000
X76000Y126000
M30
